<svg id="Layer_1" data-name="Layer 1" xmlns="http://www.w3.org/2000/svg" viewBox="0 0 319.5 513.5"><defs><style>.cls-1,.cls-2{fill:#0a3871;}.cls-2{stroke:#000;stroke-miterlimit:10;}</style></defs><path class="cls-1" d="M3.63,511.09C12.75,498.25,86.68,391,86.72,390.51c0-.26-1.51-1.39-3.45-2.44C66.62,378.76,52,364,37.55,342c-13.89-21.23-21.5-41.61-24.6-65.78-1-7.84-1-30.23,0-38,3.84-29.34,13.66-52.66,31.86-75.48,4.46-5.63,18.47-19.75,24-24.22,23.25-18.89,47.62-29.37,76.57-33,9-1.16,23.13-1.36,97.72-1.36h75.17v64H304.09c-7.81,0-14.17.07-14.17.19a39.27,39.27,0,0,0,2.25,3.61,151.56,151.56,0,0,1,23.32,55c2.18,10.64,2.52,14.94,2.52,29.26,0,13.55-.39,18.94-2.14,29.11-5.31,31.05-20.45,59.06-44.54,82.35-26.24,25.38-56.47,39.39-92,42.61-5.5.5-22.23.54-25.88.07L151,410l-13.62,19.41c-7.49,10.71-13.74,19.67-13.86,20s11.56.47,75.05.23l75.25-.27,1.16,1.9c1.09,1.79,3.58,5.36,15.64,22.79,2.83,4.07,6.68,9.7,8.57,12.46s4.66,6.71,6.06,8.73,4,5.7,5.66,8.14,3.85,5.59,4.82,7a19.24,19.24,0,0,1,1.75,2.8c0,.19-71,.31-157.8.31H1.92Zm177-165.2A84.56,84.56,0,0,0,221,327.73a115.32,115.32,0,0,0,15.63-16,87,87,0,0,0,17.51-43.58,138.79,138.79,0,0,0,0-21.19A85.88,85.88,0,0,0,230,195.78c-17.35-18-37.22-26.89-61.94-27.55-12.49-.35-21.84.93-32.2,4.39-22.05,7.29-41.61,24.79-52,46.45-6,12.42-8.31,23.09-8.31,38.11,0,11.65,1.09,19.14,4.31,28.95,8.38,25.69,30.38,47.89,55.84,56.35a101.88,101.88,0,0,0,18.2,4.11C159.33,347.25,175.32,346.82,180.67,345.89Z"/><path class="cls-2" d="M1,.54l45,64.73H272.46L318.53.5ZM267.85,57.43H51.4l-34-48.9H302.63Z"/></svg>