<svg id="Layer_1" data-name="Layer 1" xmlns="http://www.w3.org/2000/svg" viewBox="0 0 322.24 510.45"><defs><style>.cls-1{fill:#0a3871;}</style></defs><path class="cls-1" d="M322.24,254.89c0-126.68-.45-158.68-1.92-165.17a154.15,154.15,0,0,0-8.7-21.83c-5.46-11.65-8.56-15.92-20.06-27.43-11.95-11.94-15.48-14.6-29.05-21.38-18.29-9-41.74-15.34-65.48-17.7C182.13-.09,143.64-.54,131.25.79,72.56,6.54,28.91,30,11.06,65.39,3.1,81.17,0,95.77,0,117c0,11.95.59,18.44,1.77,19.62,2.51,2.5,73.44,2.5,76.69-.15,1.18-.89,3.09-6.49,4.13-12.54,3.39-20.35,15-37.16,30.67-44.09,24-10.62,71.67-10.33,95.42.88C234.93,93,242.6,107.12,241.57,141c-.45,17-.89,19.47-4.58,26.55-5.31,10-14.74,20.35-22.12,24.18-7.81,4-37,14.6-94.68,34.51C59,247.52,58,248,46,256.37,24.19,271.7,9.59,293.83,3,321.85.44,332,0,339.25,0,372.28c0,36.13.29,39.53,3.54,52.8,4.13,15.93,8.26,24.33,18,36.57,17.55,22.27,53.54,40.12,92.91,46.31,19.47,3,70.35,3.39,88.93.74,52.21-7.67,93.2-31.86,108.54-64.3C322.68,421.39,322.24,430.24,322.24,254.89Zm-81.85,131c-2.81,16.08-7.08,25.22-16.08,34.36-14.3,14.16-30.53,18.29-69.17,17.26-27.28-.89-37.9-3.25-50.87-11.51-13-8.11-21.09-26.39-22.72-50.87-1.18-18,1.77-29.21,11.06-42.77,13.28-19.32,18.44-21.68,119-56.63,15.34-5.31,23.59-9.59,26.84-14,2.51-3.4,2.65-1.63,3.1,55.74C241.86,354.88,241.42,380,240.39,385.85Z"/></svg>