<svg id="Layer_1" data-name="Layer 1" xmlns="http://www.w3.org/2000/svg" width="417.71" height="505.21" viewBox="0 0 417.71 505.21"><defs><style>.cls-1{fill:#0a3871;}</style></defs><path class="cls-1" d="M171.74,3.37c-46.77,13.39-78.59,40-99,82.86C61.9,109.32,60.16,121,60.16,177.63V227.7H21.75a20.64,20.64,0,0,0-14.6,6l-.55.56-.55.55a20.65,20.65,0,0,0-6,14.6V482.9a23,23,0,0,0,5.56,15l.46.53.56.63a18.27,18.27,0,0,0,13.68,6.16H207.45c214.82,0,200.46.78,206.86-11.64,4.59-35.07,4.46-243.74,0-252.28-6-11.84-10.87-13.58-36.09-13.58h-23.1V177.63c0-56.66-1.74-68.31-12.61-91.4C324.27,48,294.77,21,256.15,7.25,243.15,2.59,219,.3,211.07.11,189.14-.48,178.73,1.43,171.74,3.37ZM229,18.89c47.93,8.74,83.83,38.81,101.49,85l2.77,7.43a79.07,79.07,0,0,1,3.38,17.94l.64,43.52.58,53H301.18l-.78-48.13c-.78-43.08-1.36-49.09-5-59.38C283.9,87,258.68,64.3,227.24,56.93c-6.4-1.55-16.69-2.14-26.59-1.36-32,1.94-60.35,21.54-75.1,51.81-9.31,19-11.06,31.63-11.06,80V227.7H77.43L78,173.75c.78-52.39,1-54.14,5.82-67.92C91.4,85.07,99.94,71.48,116.43,55c19.8-20,40.17-30.47,68.89-35.9C203,15.79,211.33,15.79,229,18.89Zm10.48,60.94c22.89,10.67,37.84,30.66,41.91,56.08,1.17,6.21,1.94,29.3,1.94,51.42V227.7H131.57l.78-46.19c.77-41.14,1.16-47.15,4.85-57.24C153.3,81,199.3,61,239.47,79.83ZM396.6,249c2.84-1.19,3.16,33.07,2.77,119.24-.45,79.28.59,105.17-1.17,114.6a6.94,6.94,0,0,1-5.77,5.57c-13.71,2.14-35.84,1.3-78.45,1.3H234.81V468.33h54.74A15,15,0,0,0,301,463l.56-.68c4.86-5.82,5.05-6.6,5.05-35.12V405.26A17.34,17.34,0,0,0,301.53,393l-.55-.55-.55-.55a17.34,17.34,0,0,0-12.25-5.08h-65V489.67H209.58V386.82H196l-.39,34.35L195,455.71l-26,.59c-17.46.39-26.78-.2-28.52-1.75-2.14-1.75-2.72-9.31-2.72-34.93v-32.8H126.14v35.91c0,35.7,0,36.09,4.85,40.75,4.66,4.65,5.43,4.85,34.93,4.85H196V489l-40.76.87c-64.34.81-132.54,0-135.83-2.1-2.53-1.55-2.92-17.07-3.5-117-.19-73.36.2-117.21,1.56-120.51l.46-1.21a6,6,0,0,1,5.59-3.84H207.45C364.83,245.16,393.71,245.89,396.6,249Zm-104,179-.46,21.61a6.4,6.4,0,0,1-6.27,6.28l-19.86.45c-17.46.39-26.78-.2-28.52-1.75-2.14-1.75-2.72-8.15-2.72-27,0-13.39.58-25.23,1.36-25.81-.59-3,13.77-1.36,29.11-1.36H289.1a4,4,0,0,1,4,4.12Z"/><path class="cls-1" d="M76.26,275.05h0a15.57,15.57,0,0,0-5.43,11.81v23.89c0,30.28.19,31.25,4.66,36.1l4.66,5h75.1V340.25l-35.32-.39-35.52-.58L83.83,328,83.25,317h72V302.41c0-16.11-3.3-26.59-9.32-29.88-2.33-1.36-16.3-2.14-34.15-2.14C82.86,270.39,81.5,270.58,76.26,275.05Zm65,20,.59,10.28H83.44V283.78l28.72.58,28.53.59Z"/><path class="cls-1" d="M166.89,311.14v40.75h11.64l.39-33.57L179.5,285l28.72-.59,28.53-.58v68.11h13.58v-63a17.58,17.58,0,0,0-5.14-12.42l-.48-.48-2.34-2.34a11.23,11.23,0,0,0-7.94-3.29H166.89Z"/><path class="cls-1" d="M266.44,275.05h0A15.54,15.54,0,0,0,261,286.86v23.89c0,30.28.19,31.25,4.65,36.1h0a15.67,15.67,0,0,0,11.53,5h68.23V340.25l-35.32-.39-35.51-.58L274,311.53,273.43,284h70.05V270.39H307.77C272.65,270.39,271.87,270.58,266.44,275.05Z"/><path class="cls-1" d="M314.76,409.34l.5,42.52a15.76,15.76,0,0,0,5.52,11.81h0c4.85,4.27,7.18,4.66,23.86,4.66h18.25V456.69H348.53c-21.93,0-20.57,1.74-20.57-29.31v-27h34.93V386.82H328V359.66H314.18Z"/><path class="cls-1" d="M63.46,389c-7.77,4.46-9.12,11.64-9.12,46.38v33H67.92l.39-33.57.52-30a3.54,3.54,0,0,1,3.47-3.49l21.43-.5,24.64-.59V386.82H92.76C78.59,386.82,65.4,387.8,63.46,389Z"/></svg>